REM DIRINDEX 1\4,1\2\5,1\2\6,1\2\7,1\3\8,1\3\9,1\3\10,1\3\11
REM DIRNAME folder01,folder02,folder03,folder04,folder05,folder06,folder07,folder08,folder09,folder10,folder11
TITLE ""
FILE "t_k_045-054.mp3" MP3
  TRACK 01 AUDIO
    TITLE "5:cjc108_0134"
    INDEX 01 00:00:00
  TRACK 02 AUDIO
    TITLE "0:"
    INDEX 01 00:00:62
  TRACK 03 AUDIO
    TITLE "6:cjc108_0135"
    INDEX 01 00:01:09
  TRACK 04 AUDIO
    TITLE "0:"
    INDEX 01 00:05:40
  TRACK 05 AUDIO
    TITLE "7:cjc108_0136"
    INDEX 01 00:05:71
  TRACK 06 AUDIO
    TITLE "0:"
    INDEX 01 00:09:59
  TRACK 07 AUDIO
    TITLE "5:cjc108_0137"
    INDEX 01 00:10:49
  TRACK 08 AUDIO
    TITLE "0:"
    INDEX 01 00:11:62
  TRACK 09 AUDIO
    TITLE "6:cjc108_0138"
    INDEX 01 00:11:72
  TRACK 10 AUDIO
    TITLE "0:"
    INDEX 01 00:14:47
  TRACK 11 AUDIO
    TITLE "7:cjc108_0139"
    INDEX 01 00:14:66
  TRACK 12 AUDIO
    TITLE "0:"
    INDEX 01 00:21:57
  TRACK 13 AUDIO
    TITLE "5:cjc108_0140"
    INDEX 01 00:22:48
  TRACK 14 AUDIO
    TITLE "0:"
    INDEX 01 00:23:51
  TRACK 15 AUDIO
    TITLE "6:cjc108_0141"
    INDEX 01 00:23:65
  TRACK 16 AUDIO
    TITLE "0:"
    INDEX 01 00:25:25
  TRACK 17 AUDIO
    TITLE "7:cjc108_0142"
    INDEX 01 00:25:58
  TRACK 18 AUDIO
    TITLE "0:"
    INDEX 01 00:31:65
  TRACK 19 AUDIO
    TITLE "5:cjc108_0143"
    INDEX 01 00:32:45
  TRACK 20 AUDIO
    TITLE "0:"
    INDEX 01 00:33:50
  TRACK 21 AUDIO
    TITLE "6:cjc108_0144"
    INDEX 01 00:33:66
  TRACK 22 AUDIO
    TITLE "0:"
    INDEX 01 00:35:10
  TRACK 23 AUDIO
    TITLE "7:cjc108_0145"
    INDEX 01 00:35:29
  TRACK 24 AUDIO
    TITLE "0:"
    INDEX 01 00:40:32
  TRACK 25 AUDIO
    TITLE "5:cjc108_0146"
    INDEX 01 00:41:18
  TRACK 26 AUDIO
    TITLE "0:"
    INDEX 01 00:42:21
  TRACK 27 AUDIO
    TITLE "6:cjc108_0147"
    INDEX 01 00:42:51
  TRACK 28 AUDIO
    TITLE "0:"
    INDEX 01 00:46:47
  TRACK 29 AUDIO
    TITLE "7:cjc108_0148"
    INDEX 01 00:46:64
  TRACK 30 AUDIO
    TITLE "0:"
    INDEX 01 00:52:00
  TRACK 31 AUDIO
    TITLE "5:cjc108_0149"
    INDEX 01 00:52:67
  TRACK 32 AUDIO
    TITLE "0:"
    INDEX 01 00:54:11
  TRACK 33 AUDIO
    TITLE "6:cjc108_0150"
    INDEX 01 00:54:36
  TRACK 34 AUDIO
    TITLE "0:"
    INDEX 01 00:58:13
  TRACK 35 AUDIO
    TITLE "7:cjc108_0151"
    INDEX 01 00:58:46
  TRACK 36 AUDIO
    TITLE "0:"
    INDEX 01 01:04:05
  TRACK 37 AUDIO
    TITLE "5:cjc108_0152"
    INDEX 01 01:04:60
  TRACK 38 AUDIO
    TITLE "0:"
    INDEX 01 01:05:62
  TRACK 39 AUDIO
    TITLE "6:cjc108_0153"
    INDEX 01 01:06:06
  TRACK 40 AUDIO
    TITLE "0:"
    INDEX 01 01:08:35
  TRACK 41 AUDIO
    TITLE "7:cjc108_0154"
    INDEX 01 01:08:54
  TRACK 42 AUDIO
    TITLE "0:"
    INDEX 01 01:14:59
  TRACK 43 AUDIO
    TITLE "5:cjc108_0155"
    INDEX 01 01:15:48
  TRACK 44 AUDIO
    TITLE "0:"
    INDEX 01 01:16:56
  TRACK 45 AUDIO
    TITLE "6:cjc108_0156"
    INDEX 01 01:17:04
  TRACK 46 AUDIO
    TITLE "0:"
    INDEX 01 01:19:52
  TRACK 47 AUDIO
    TITLE "7:cjc108_0157"
    INDEX 01 01:19:74
  TRACK 48 AUDIO
    TITLE "0:"
    INDEX 01 01:25:41
  TRACK 49 AUDIO
    TITLE "5:cjc108_0158"
    INDEX 01 01:26:32
  TRACK 50 AUDIO
    TITLE "0:"
    INDEX 01 01:27:40
  TRACK 51 AUDIO
    TITLE "6:cjc108_0159"
    INDEX 01 01:27:50
  TRACK 52 AUDIO
    TITLE "0:"
    INDEX 01 01:29:09
  TRACK 53 AUDIO
    TITLE "7:cjc108_0160"
    INDEX 01 01:29:23
  TRACK 54 AUDIO
    TITLE "0:"
    INDEX 01 01:36:29
  TRACK 55 AUDIO
    TITLE "5:cjc108_0161"
    INDEX 01 01:37:09
  TRACK 56 AUDIO
    TITLE "0:"
    INDEX 01 01:38:20
  TRACK 57 AUDIO
    TITLE "6:cjc108_0162"
    INDEX 01 01:38:42
  TRACK 58 AUDIO
    TITLE "0:"
    INDEX 01 01:40:58
  TRACK 59 AUDIO
    TITLE "7:cjc108_0163"
    INDEX 01 01:41:09
  TRACK 60 AUDIO
    TITLE "0:"
    INDEX 01 01:46:53
